# xmcd
#
# Track frame offsets: 
#        150
#        29130
#        47029
#        64206
#        86115
#        104552
#        126941
#        151106
#        170406
#        190497
#        204230
#        218145
#        237568
#
# Disc length: 3451 seconds
#
# Revision: 0
# Processed by: cddbd v1.5.2PL0 Copyright (c) Steve Scherf et al.
# Submitted via: ExactAudioCopyFreeDBPlugin 1.0
#
DISCID=c10d790d
DTITLE=Various Artist - The Crossover The Most Awesome Male Vocal Album CD2
DYEAR=2015
DGENRE=Vocal
TTITLE0=Michael Jackson麦可杰克森 – Heal the World
TTITLE1=Marvin Gaye马文盖 – Sexual Healing
TTITLE2=Luther Vandross路瑟范德鲁斯 – Never Too Much
TTITLE3=Billy Ocean比利欧辛 – There’ll be Sad Songs (To Make You Cry) 
TTITLE4=Kenny G肯尼吉 – Don’t Make Me Wait for Love 
TTITLE5=Babyface娃娃脸 – Every Time I Close My Eyes 
TTITLE6=R.Kelly劳凯利 – I Believe I Can Fly 
TTITLE7=Michael Bolton 麦可伯特恩– How am I Supposed to Live Without You 
TTITLE8=Kenny Loggins肯尼罗金斯 – For the First Time 
TTITLE9=Rick Astley瑞克艾斯里 – When I Fall in Love 
TTITLE10=Leon Bridges里欧布里基 – Smooth Sailin’ 
TTITLE11=Maxwell 麦斯威尔– Pretty Wings 
TTITLE12=Joe乔 – I Wanna Know 
EXTD=
EXTT0=
EXTT1=
EXTT2=
EXTT3=
EXTT4=
EXTT5=
EXTT6=
EXTT7=
EXTT8=
EXTT9=
EXTT10=
EXTT11=
EXTT12=
PLAYORDER=
